<svg xmlns="http://www.w3.org/2000/svg" width="92" height="34" fill="none" viewBox="0 0 92 34">
    <g clip-path="url(#prefix__clip0)">
        <path fill="#232735" d="M4.028 23.143c-.37 0-.674-.044-.908-.132-.234-.078-.415-.186-.542-.322v9.755c0 .274-.054.493-.161.66-.107.175-.244.312-.41.41-.156.097-.327.16-.513.19-.185.04-.351.059-.498.059-.303 0-.493-.078-.571-.235-.078-.156-.117-.346-.117-.571V12.01c0-.215-.02-.386-.059-.513-.03-.127-.063-.224-.103-.293-.029-.078-.063-.137-.102-.176-.03-.049-.044-.102-.044-.16 0-.05.03-.094.088-.133.058-.039.137-.073.234-.102.098-.03.2-.049.308-.059.117-.02.23-.03.337-.03.478 0 .86.133 1.142.396.293.254.45.552.47.894.312-.459.688-.84 1.127-1.143.44-.302.977-.454 1.611-.454.586 0 1.094.137 1.524.41.44.274.8.65 1.084 1.128.293.47.508 1.026.644 1.67.147.645.22 1.338.22 2.08 0 .84-.073 1.646-.22 2.417-.146.762-.332 1.416-.556 1.963.498-.029.908-.097 1.23-.205.322-.107.591-.254.806-.44.224-.195.415-.429.571-.702.166-.274.337-.586.513-.938.137-.283.249-.488.337-.615.097-.127.215-.19.351-.19.127 0 .254.038.381.117.137.078.254.175.352.293.107.117.19.244.249.38.068.127.102.245.102.352 0 .342-.117.732-.351 1.172-.235.44-.596.854-1.084 1.245-.479.39-1.09.723-1.831.996-.733.264-1.597.396-2.593.396-.41.44-.884.776-1.421 1.01-.537.244-1.07.367-1.597.367zm.528-10.899c-.215 0-.425.064-.63.19-.196.128-.381.303-.557.528-.176.215-.332.478-.469.79-.127.313-.234.65-.322 1.012v6.489c.215-.313.567-.552 1.055-.718.488-.166 1.079-.278 1.772-.337.176-.263.327-.576.454-.937.137-.371.25-.752.337-1.143.088-.39.152-.771.19-1.142.05-.371.074-.699.074-.982 0-.684-.054-1.264-.161-1.743-.098-.478-.235-.864-.41-1.157-.176-.303-.381-.518-.616-.645-.224-.136-.463-.205-.717-.205z"/>
        <path fill="#232735" d="M14.49 19.48c0 .069.004.181.014.337.01.147.04.298.088.454.049.157.127.293.234.41.108.118.26.176.454.176.293 0 .547-.107.762-.322.225-.215.415-.483.571-.805.166-.323.303-.67.41-1.04.108-.381.196-.738.264-1.07.059-.303.147-.522.264-.66.127-.136.259-.209.395-.219.147-.02.288.015.425.103.147.088.274.205.381.351.117.137.2.293.25.47.058.175.068.34.028.497-.136.498-.317 1.02-.542 1.568-.214.546-.493 1.05-.834 1.508-.342.46-.753.84-1.231 1.143-.478.303-1.04.454-1.685.454-.4 0-.756-.078-1.069-.234-.312-.147-.576-.347-.79-.601-.216-.254-.382-.552-.499-.894-.107-.341-.161-.703-.161-1.084V12.01c0-.283-.024-.489-.073-.615-.04-.127-.059-.245-.059-.352 0-.146.078-.264.234-.352.157-.097.342-.146.557-.146.498 0 .889.132 1.172.395.293.254.44.562.44.923v7.617z"/>
        <path fill="#232735" d="M23.266 22.835c-.664 0-1.309-.122-1.934-.366s-1.181-.606-1.67-1.084c-.478-.479-.864-1.07-1.157-1.773-.283-.703-.425-1.518-.425-2.446 0-.86.122-1.704.367-2.534.244-.83.58-1.567 1.01-2.212.43-.654.943-1.182 1.538-1.582.606-.4 1.265-.6 1.978-.6.518 0 .957.107 1.318.322.362.205.655.459.88.761.224.293.385.61.483.952.107.342.16.645.16.909 0 .195-.053.37-.16.527-.098.156-.22.288-.367.396-.146.107-.307.19-.483.248-.176.05-.332.069-.469.06-.137-.01-.249-.06-.337-.147-.078-.088-.102-.22-.073-.396-.039-.127-.078-.283-.117-.469-.03-.185-.088-.361-.176-.527-.078-.176-.19-.322-.337-.44-.146-.126-.347-.19-.6-.19-.274 0-.542.132-.806.396-.254.254-.483.605-.688 1.054-.196.45-.357.972-.484 1.568-.117.595-.176 1.23-.176 1.904 0 .596.073 1.123.22 1.582.156.459.371.845.645 1.157.273.313.595.552.966.718.381.156.791.234 1.23.234.587 0 1.095-.107 1.524-.322.44-.224.81-.517 1.113-.879.303-.361.547-.766.733-1.216.185-.449.322-.903.41-1.362.069-.332.205-.552.41-.66.215-.116.43-.145.645-.087.224.059.415.186.571.38.166.187.235.411.205.675-.039.303-.112.65-.22 1.04-.097.39-.223.742-.439 1.186-.24.493-.444.796-.747 1.187-.293.38-.654.723-1.084 1.025-.43.303-.933.547-1.509.733-.566.185-1.216.278-1.948.278z"/>
        <path fill="#232735" d="M28.453 3.514c0-.215-.019-.386-.058-.513-.03-.127-.064-.225-.103-.293-.029-.078-.063-.137-.102-.176-.03-.049-.044-.097-.044-.146 0-.059.03-.108.088-.147.058-.039.136-.073.234-.102.098-.03.2-.05.308-.059.117-.02.23-.03.337-.03.498 0 .888.133 1.172.396.293.254.44.562.44.923v9.36c.243-.332.497-.644.76-.937.274-.303.557-.566.85-.791.293-.234.596-.42.909-.557.322-.136.654-.205.996-.205.468 0 .869.093 1.2.279.333.175.606.415.821.717.225.303.386.65.484 1.04.107.381.16.782.16 1.202 0 .576-.092 1.118-.278 1.626-.185.498-.42.952-.703 1.362-.283.41-.596.776-.937 1.098-.332.323-.65.591-.952.806.068.322.16.635.278.938.127.293.278.556.454.79.176.235.376.42.6.557.235.137.499.205.792.205.341 0 .659-.102.952-.307.303-.215.566-.479.79-.791.235-.323.43-.67.587-1.04.156-.381.268-.738.337-1.07.058-.302.146-.522.263-.659.127-.136.26-.21.396-.22.146-.019.293.015.44.103.146.088.273.205.38.352.108.136.186.293.234.468.06.176.069.342.03.498-.137.4-.332.87-.586 1.407-.254.537-.576 1.045-.967 1.523-.39.479-.85.884-1.377 1.216-.527.332-1.133.498-1.816.498-.586 0-1.123-.151-1.612-.454-.478-.303-.893-.684-1.245-1.143-.342-.459-.605-.962-.79-1.508-.186-.547-.28-1.07-.28-1.568 0-.156.07-.312.206-.469.137-.166.308-.341.513-.527.215-.195.44-.41.674-.645.244-.234.468-.498.673-.79.215-.293.391-.62.528-.982.136-.371.205-.786.205-1.245 0-.371-.093-.674-.279-.908-.175-.235-.405-.352-.688-.352-.176 0-.39.069-.644.205-.245.127-.503.352-.777.674-.273.322-.547.752-.82 1.29-.274.527-.528 1.186-.762 1.977v5.156c0 .146-.005.298-.015.454 0 .146-.029.278-.087.395-.05.128-.132.23-.25.308-.107.088-.268.132-.483.132-.146 0-.308-.02-.483-.059-.166-.029-.323-.092-.47-.19-.136-.088-.253-.22-.35-.396-.088-.166-.133-.39-.133-.673V3.514z"/>
        <path fill="#232735" d="M57.943 18.162c-.137.498-.317 1.02-.542 1.568-.215.546-.493 1.05-.835 1.508-.342.46-.752.84-1.23 1.143-.479.303-1.04.454-1.685.454-.4 0-.757-.078-1.07-.234-.302-.147-.566-.347-.79-.601-.215-.254-.381-.552-.498-.894-.108-.341-.162-.703-.162-1.084V13.93c0-.235-.005-.454-.014-.66-.01-.204-.034-.385-.073-.542-.04-.156-.098-.278-.176-.366-.069-.097-.166-.146-.293-.146-.205 0-.454.146-.747.44-.293.292-.577.673-.85 1.142-.273.469-.517 1-.732 1.597-.215.585-.342 1.176-.381 1.772v4.38c0 .146-.005.298-.015.454 0 .146-.03.278-.088.395-.049.128-.132.23-.249.308-.107.088-.268.132-.483.132-.147 0-.308-.02-.483-.059-.167-.029-.323-.092-.47-.19-.136-.088-.253-.22-.35-.396-.089-.166-.133-.39-.133-.673v-7.588c0-.235-.01-.454-.029-.66-.01-.204-.034-.385-.073-.542-.04-.156-.098-.278-.176-.366-.068-.097-.166-.146-.293-.146-.205 0-.454.146-.747.44-.283.292-.567.673-.85 1.142-.273.469-.517 1-.732 1.597-.205.585-.332 1.176-.38 1.772v4.38c0 .146-.006.298-.016.454 0 .146-.029.278-.087.395-.05.128-.132.23-.25.308-.107.088-.268.132-.483.132-.146 0-.308-.02-.483-.059-.166-.029-.323-.092-.47-.19-.136-.088-.253-.22-.35-.396-.088-.166-.133-.39-.133-.673V12.01c0-.283-.024-.489-.073-.615-.039-.127-.058-.245-.058-.352 0-.146.078-.264.234-.352.156-.097.342-.146.557-.146.498 0 .888.132 1.172.395.293.254.44.562.44.923v1.26c.194-.41.404-.791.629-1.143.234-.351.483-.654.747-.908.264-.263.542-.468.835-.615.303-.147.625-.22.967-.22.449 0 .82.083 1.113.25.303.165.542.385.718.659.185.273.317.58.395.922.078.332.127.664.147.997.185-.4.39-.772.615-1.114.225-.342.469-.64.733-.893.263-.254.541-.454.834-.601.303-.147.625-.22.967-.22.488 0 .889.093 1.201.279.313.185.557.424.733.717.176.293.298.62.366.982.068.361.103.713.103 1.055v6.21c0 .069.005.181.014.337.01.147.04.298.088.454.049.157.122.293.22.41.107.118.259.176.454.176.303 0 .562-.107.776-.322.225-.215.415-.483.572-.805.166-.323.302-.67.41-1.04.107-.381.195-.738.263-1.07.059-.312.152-.537.279-.674.136-.146.283-.22.44-.22.116 0 .234.04.35.118.128.068.24.16.338.278.107.117.19.25.249.396.068.146.102.293.102.439v.073c0 .03-.01.073-.03.132z"/>
        <path fill="#232735" d="M64.302 13.27c0 .556-.097 1.128-.293 1.713-.185.586-.468 1.143-.85 1.67-.37.518-.834.987-1.39 1.407-.548.41-1.182.722-1.905.937.098.254.225.498.38.733.167.224.362.42.587.585.224.166.483.298.776.396.303.098.65.146 1.04.146.586 0 1.09-.107 1.509-.322.42-.224.771-.517 1.055-.879.293-.361.527-.766.703-1.216.176-.449.307-.903.395-1.362.069-.332.205-.552.41-.66.215-.116.43-.145.645-.087.225.059.415.186.571.38.166.187.235.411.205.675-.039.303-.107.65-.205 1.04-.088.39-.224.786-.41 1.186-.185.4-.425.796-.718 1.187-.283.38-.634.723-1.054 1.025-.42.303-.913.547-1.48.733-.566.185-1.216.278-1.948.278-.684 0-1.348-.137-1.992-.41-.635-.264-1.201-.645-1.7-1.143-.488-.508-.883-1.128-1.186-1.86-.293-.742-.44-1.582-.44-2.52 0-.947.132-1.826.396-2.636.264-.82.61-1.529 1.04-2.124.43-.596.918-1.06 1.465-1.392.547-.342 1.108-.513 1.684-.513.42 0 .796.073 1.128.22.342.146.63.356.865.63.234.264.41.581.527.952.127.371.19.781.19 1.23zm-4.834 3.544c0 .088.005.176.015.264.01.088.015.18.015.278.37-.175.708-.4 1.01-.673.303-.274.562-.586.777-.938.215-.351.38-.732.498-1.143.117-.42.176-.854.176-1.303 0-.332-.059-.591-.176-.776-.108-.186-.259-.279-.454-.279-.244 0-.464.083-.66.25-.185.165-.35.385-.497.658-.137.264-.254.567-.352.909-.088.332-.161.668-.22 1.01-.058.342-.097.67-.117.982-.02.302-.024.556-.014.761z"/>
        <path fill="#232735" d="M75.628 22.835c-.342 0-.654-.054-.938-.161-.273-.108-.517-.259-.732-.454-.205-.186-.376-.405-.513-.66-.136-.263-.23-.546-.278-.85-.362.636-.786 1.153-1.275 1.554-.488.4-1.064.6-1.728.6-.498 0-.947-.102-1.348-.307-.39-.205-.722-.493-.996-.865-.273-.38-.483-.835-.63-1.362-.136-.537-.205-1.133-.205-1.787 0-.791.054-1.587.161-2.388.117-.8.245-1.523.381-2.168.156-.752.337-1.48.542-2.182.049-.127.083-.254.103-.381.029-.137.088-.259.175-.366.088-.108.225-.196.41-.264.196-.068.494-.103.894-.103.371 0 .61.069.718.205.107.127.147.279.117.455-.02.175-.078.356-.176.542-.088.185-.146.336-.175.454-.137.556-.26 1.064-.367 1.523-.107.46-.2.923-.278 1.392-.068.459-.122.942-.161 1.45-.04.498-.059 1.06-.059 1.684 0 .82.118 1.44.352 1.86.244.42.586.63 1.025.63.303 0 .581-.112.835-.336.264-.225.498-.523.703-.894.215-.38.4-.81.557-1.289.156-.488.278-.996.366-1.523V12.01c0-.215-.02-.386-.058-.513-.03-.127-.064-.224-.103-.293-.03-.078-.063-.137-.102-.176-.03-.049-.044-.102-.044-.16 0-.05.029-.094.087-.133.06-.039.137-.073.235-.102.098-.03.2-.049.307-.059.118-.02.23-.03.337-.03.499 0 .89.133 1.172.396.293.254.44.562.44.923v7.617c0 .069.005.181.014.337.01.147.04.298.088.454.05.157.127.293.235.41.107.118.259.176.454.176.302 0 .561-.107.776-.322.225-.215.415-.483.571-.805.166-.323.298-.67.396-1.04.107-.381.195-.738.264-1.07.058-.312.156-.537.293-.674.136-.146.278-.22.424-.22.118 0 .24.04.367.118.127.068.239.16.337.278.107.117.19.25.249.396.068.146.102.293.102.439v.073c0 .03-.01.073-.03.132-.136.498-.317 1.02-.541 1.568-.215.546-.493 1.05-.835 1.508-.342.46-.752.84-1.23 1.143-.48.303-1.04.454-1.685.454z"/>
        <path fill="#232735" d="M83.1 23.143c-.37 0-.673-.044-.908-.132-.234-.078-.415-.186-.542-.322v9.755c0 .274-.053.493-.16.66-.108.175-.245.312-.41.41-.157.097-.328.16-.514.19-.185.04-.351.059-.498.059-.302 0-.493-.078-.57-.235-.08-.156-.118-.346-.118-.571V12.01c0-.215-.02-.386-.059-.513-.029-.127-.063-.224-.102-.293-.03-.078-.064-.137-.103-.176-.03-.049-.044-.102-.044-.16 0-.05.03-.094.088-.133.059-.039.137-.073.234-.102.098-.03.2-.049.308-.059.117-.02.23-.03.337-.03.479 0 .86.133 1.143.396.293.254.449.552.468.894.313-.459.689-.84 1.128-1.143.44-.302.977-.454 1.612-.454.586 0 1.093.137 1.523.41.44.274.8.65 1.084 1.128.293.47.508 1.026.645 1.67.146.645.22 1.338.22 2.08 0 .84-.074 1.646-.22 2.417-.147.762-.332 1.416-.557 1.963.498-.029.908-.097 1.23-.205.323-.107.591-.254.806-.44.225-.195.415-.429.571-.702.166-.274.337-.586.513-.938.137-.283.25-.488.337-.615.098-.127.215-.19.352-.19.126 0 .253.038.38.117.137.078.254.175.352.293.107.117.19.244.249.38.068.127.103.245.103.352 0 .342-.118.732-.352 1.172-.234.44-.596.854-1.084 1.245-.478.39-1.089.723-1.831.996-.733.264-1.597.396-2.593.396-.41.44-.884.776-1.42 1.01-.538.244-1.07.367-1.597.367zm.528-10.899c-.215 0-.425.064-.63.19-.195.128-.38.303-.557.528-.175.215-.332.478-.468.79-.127.313-.235.65-.323 1.012v6.489c.215-.313.567-.552 1.055-.718.488-.166 1.08-.278 1.773-.337.175-.263.327-.576.454-.937.136-.371.249-.752.337-1.143.087-.39.15-.771.19-1.142.049-.371.073-.699.073-.982 0-.684-.053-1.264-.16-1.743-.099-.478-.235-.864-.411-1.157-.176-.303-.38-.518-.615-.645-.225-.136-.464-.205-.718-.205z"/>
        <path fill="#F063B8" d="M26.209 5l3.5-5 3.5 5h-7zM30.724 21.546V5h-2.27v16.517c0 .283.044.508.131.674.098.175.215.307.352.395.146.098.303.161.469.19.175.04.337.059.483.059.215 0 .376-.044.484-.132.117-.078.2-.18.249-.308.058-.117.087-.248.087-.395.01-.156.015-.308.015-.454z"/>
        <path fill="#9C69E2" d="M15.909 5.45c0 1.243-1.007 2.25-2.25 2.25s-2.25-1.007-2.25-2.25c0-1.242 1.007-2.25 2.25-2.25s2.25 1.008 2.25 2.25z"/>
    </g>
    <defs>
        <clipPath id="prefix__clip0">
            <path fill="#fff" d="M0 0H91.978V33.763H0z"/>
        </clipPath>
    </defs>
</svg>
